<svg width="20" height="20" fill="none" xmlns="http://www.w3.org/2000/svg"><path d="m8.258 13.458.409-.409-1.717-1.717-.409.41-.204-.205c-.327-.368-.654-.573-.981-.532-.246 0-.45.164-.613.409-.246.409-.123.859-.082 1.145 0 .082.04.123.04.204 0 .123 0 .286-.285.327-.41.123-.94.246-1.472.532-.736.409-1.226.777-1.512 1.145C-.081 16.729 0 18.406 0 18.487c0 .123.04.205.122.246l1.104 1.144c.082.082.164.123.245.123h.123c.409 0 1.88-.082 3.597-1.431.368-.286.736-.777 1.145-1.513.286-.49.45-1.022.531-1.472.082-.286.205-.286.327-.286.041 0 .123.041.205.041.163.04.327.082.531.082.204 0 .409-.041.613-.164.245-.163.409-.368.45-.613.04-.327-.123-.654-.49-.94l-.246-.246Zm8.626-8.58 1.135-.552c.042-.042.126-.085.168-.127l1.723-2.337c.126-.17.126-.425-.042-.553L18.691.12c-.126-.127-.378-.17-.546-.042L15.833 1.82a.588.588 0 0 0-.126.17l-.546 1.147L11 7.216 12.765 9l4.119-4.122Z" fill="#fff"/><path d="M17.853 13.045a3.748 3.748 0 0 0-3.759-1.041l-6.449-6.83c.08-.376.119-.709.119-1.084a4.184 4.184 0 0 0-1.147-2.873 3.696 3.696 0 0 0-3.996-1 .542.542 0 0 0-.238.333c0 .125.04.25.119.375l1.939 2.041c.435.458.435 1.25 0 1.708a1.129 1.129 0 0 1-1.622 0L.879 2.633c-.118-.084-.236-.125-.395-.084-.118 0-.237.125-.277.25-.474 1.458-.118 3.082.91 4.165.712.791 1.741 1.208 2.77 1.208.316 0 .672-.042.989-.125l6.488 6.83a4.339 4.339 0 0 0 .99 3.957A3.668 3.668 0 0 0 15.083 20c.434 0 .83-.083 1.265-.208a.491.491 0 0 0 .277-.292.346.346 0 0 0-.119-.375l-1.938-2.04a1.332 1.332 0 0 1-.356-.875c0-.333.119-.625.356-.875a1.11 1.11 0 0 1 1.662 0l1.938 2.041a.617.617 0 0 0 .356.125c.119-.042.238-.125.277-.25A4.92 4.92 0 0 0 19 15.918c0-1.082-.396-2.124-1.147-2.873Z" fill="#fff"/></svg>