<svg width="98" height="52" fill="none" xmlns="http://www.w3.org/2000/svg"><path fill-rule="evenodd" clip-rule="evenodd" d="M36.57.726a1 1 0 0 0-1 1v4.275a1 1 0 0 0 1 1h36.327c10.127 0 18.08 7.797 18.08 17.89 0 .285.232.517.518.517h5.262a.517.517 0 0 0 .517-.518C97.274 11.401 86.432.726 72.897.726H36.57ZM7.107 25.846a.438.438 0 0 0-.439-.438H1.164a.438.438 0 0 0-.438.438c0 13.65 10.223 24.919 23.443 25.656l42.341.038a1 1 0 0 0 1.001-1v-4.58a1 1 0 0 0-1-1H25.626c-10.236-.028-18.52-8.543-18.52-19.114Z" fill="#6B7B84" stroke="#80949F" stroke-width=".5"/><path fill-rule="evenodd" clip-rule="evenodd" d="M28.141 39.926c2.74 0 5.02-.532 7.274-1.627l.155-.145v-7.835l-.843 1.08c-1.622 1.773-3.801 2.748-6.266 2.748-4.592 0-9.204-2.967-9.204-8.64 0-4.286 3.18-8.841 9.042-8.841 1.17 0 4.014.276 6.424 2.836l.847 1.044v-7.8l-.148-.147c-2.296-1.15-4.638-1.71-7.309-1.71-4.566 0-8.131 1.203-10.97 3.674-1.8 1.548-4.802 5.02-4.802 10.863 0 4.32 1.538 7.695 4.826 10.622 3.058 2.682 6.449 3.878 10.974 3.878Z" fill="#6B7B84"/><path d="M28.141 39.926c2.74 0 5.02-.532 7.274-1.627l.155-.145v-7.835l-.843 1.08c-1.622 1.773-3.801 2.748-6.266 2.748-4.592 0-9.204-2.967-9.204-8.64 0-4.286 3.18-8.841 9.042-8.841 1.17 0 4.014.276 6.424 2.836l.847 1.044v-7.8l-.148-.147c-2.296-1.15-4.638-1.71-7.309-1.71-4.566 0-8.131 1.203-10.97 3.674-1.8 1.548-4.802 5.02-4.802 10.863 0 4.32 1.538 7.695 4.826 10.622 3.058 2.682 6.449 3.878 10.974 3.878" stroke="#80949F" stroke-width=".5"/><path fill-rule="evenodd" clip-rule="evenodd" d="M47.911 17.422h1.364c1.252 0 2.678.069 3.758.805.527.376 1.411 1.248 1.411 2.831 0 1.17-.517 2.22-1.37 2.874-1.096.795-2.397.75-3.443.75h-1.72v-7.26Zm3.066 12.53c3.231 0 5.76-.932 7.517-2.688 2.16-2.157 2.484-5.123 2.484-6.687 0-1.673-.397-4.937-3.057-7.3-2.18-1.91-4.507-2.388-7.789-2.388h-8.754v29.037h6.658v-9.974h2.94Z" fill="#6B7B84"/><path d="M47.911 17.422v-.25h-.25v.25h.25Zm5.122.805.145-.204-.005-.003-.14.207Zm.04 5.705.147.202.005-.004-.152-.198Zm-5.162.75h-.25v.25h.25v-.25Zm10.583 2.582-.177-.177.177.177Zm-.573-13.987.166-.187h-.001l-.165.187ZM41.378 10.89v-.25h-.25v.25h.25Zm0 29.037h-.25v.25h.25v-.25Zm6.658 0v.25h.25v-.25h-.25Zm0-9.974v-.25h-.25v.25h.25Zm-.125-12.28h1.364v-.5h-1.364v.5Zm1.364 0c1.258 0 2.609.074 3.617.761l.281-.413c-1.15-.785-2.652-.848-3.898-.848v.5Zm3.612.758c.488.348 1.307 1.153 1.307 2.628h.5c0-1.691-.95-2.63-1.516-3.035l-.29.407Zm1.307 2.628c0 1.096-.483 2.07-1.273 2.676l.304.396c.919-.704 1.47-1.828 1.47-3.072h-.5Zm-1.268 2.672c-1.017.738-2.229.701-3.295.701v.5c1.025 0 2.416.054 3.59-.797l-.295-.404Zm-3.295.701h-1.72v.5h1.72v-.5Zm-1.47.25v-7.259h-.5v7.26h.5Zm2.816 5.52c3.28 0 5.88-.947 7.694-2.76l-.354-.354c-1.698 1.698-4.157 2.615-7.34 2.615v.5Zm7.694-2.76c2.232-2.228 2.557-5.278 2.557-6.864h-.5c0 1.543-.321 4.425-2.41 6.51l.353.354Zm2.557-6.864c0-1.701-.402-5.053-3.141-7.487l-.332.374c2.581 2.293 2.973 5.468 2.973 7.113h.5Zm-3.142-7.488c-2.246-1.968-4.645-2.45-7.954-2.45v.5c3.255 0 5.51.473 7.624 2.326l.33-.376Zm-7.954-2.45h-8.754v.5h8.754v-.5Zm-9.004.25v29.037h.5V10.89h-.5Zm.25 29.287h6.658v-.5h-6.658v.5Zm6.908-.25v-9.974h-.5v9.974h.5Zm-.25-9.724h2.94v-.5h-2.94v.5Z" fill="#80949F"/><path fill-rule="evenodd" clip-rule="evenodd" d="M80.953 24.602c-1.448-1.282-3.469-2.026-5.762-2.797-1.634-.569-2.535-.882-3.135-1.43-.474-.401-.685-.838-.685-1.415 0-1.264.859-2.615 3.27-2.615 1.639 0 3.01.7 4.078 2.082l.424.548L82.66 14.5l-.32-.32c-2.15-2.153-4.984-3.29-8.195-3.29-6.479 0-9.379 4.215-9.379 8.392 0 2.241.8 4.049 2.371 5.37 1.407 1.206 3.123 1.882 4.77 2.433l.185.062c1.462.483 2.973.983 3.876 1.791.628.577.908 1.204.908 2.034 0 1.9-1.496 3.177-3.723 3.177-1.76 0-4.079-.863-5.305-3.285l-.32-.634-4.371 4.046.257.364c1.395 1.975 4.541 5.287 9.946 5.287 5.96 0 10.122-3.831 10.122-9.317 0-3.138-1.376-5-2.528-6.007Z" fill="#6B7B84"/><path d="M80.953 24.602c-1.448-1.282-3.469-2.026-5.762-2.797-1.634-.569-2.535-.882-3.135-1.43-.474-.401-.685-.838-.685-1.415 0-1.264.859-2.615 3.27-2.615 1.639 0 3.01.7 4.078 2.082l.424.548L82.66 14.5l-.32-.32c-2.15-2.153-4.984-3.29-8.195-3.29-6.479 0-9.379 4.215-9.379 8.392 0 2.241.8 4.049 2.371 5.37 1.407 1.206 3.123 1.882 4.77 2.433l.185.062c1.462.483 2.973.983 3.876 1.791.628.577.908 1.204.908 2.034 0 1.9-1.496 3.177-3.723 3.177-1.76 0-4.079-.863-5.305-3.285l-.32-.634-4.371 4.046.257.364c1.395 1.975 4.541 5.287 9.946 5.287 5.96 0 10.122-3.831 10.122-9.317 0-3.138-1.376-5-2.528-6.007" stroke="#80949F" stroke-width=".5"/></svg>